<svg xmlns="http://www.w3.org/2000/svg" width="143.859" height="120.419" viewBox="0 0 143.859 120.419">
    <g transform="translate(-4.898 -8.985)">
        <path d="M12.917,63.861c0-5.047,3.65-9.342,9.809-9.342A9.234,9.234,0,0,1,28,55.994a.885.885,0,0,1,.311,1.294l-.233.414a.841.841,0,0,1-1.3.311,8.833,8.833,0,0,0-4.062-1.035,6.885,6.885,0,1,0,0,13.767,8.833,8.833,0,0,0,4.062-1.035.84.84,0,0,1,1.3.31l.233.415c.285.543.232.9-.155,1.19A9.217,9.217,0,0,1,22.726,73.2C16.567,73.2,12.917,68.907,12.917,63.861Z"
              fill="#fff"/>
        <path d="M32.46,71.987V55.735a.845.845,0,0,1,.932-.931h.88a.844.844,0,0,1,.931.931V71.987a.845.845,0,0,1-.931.932h-.88A.846.846,0,0,1,32.46,71.987Z"
              fill="#fff"/>
        <path d="M53.347,55.735v.388a.846.846,0,0,1-.932.932H47.369V71.987a.846.846,0,0,1-.932.932h-.854a.845.845,0,0,1-.931-.932V57.055H39.6a.857.857,0,0,1-.932-.932v-.388A.857.857,0,0,1,39.6,54.8h12.81A.845.845,0,0,1,53.347,55.735Z"
              fill="#fff"/>
        <path d="M73.047,71.987V55.735a.845.845,0,0,1,.932-.931h5c5.771,0,9.316,4.062,9.316,9.057s-3.545,9.058-9.316,9.058h-5A.846.846,0,0,1,73.047,71.987Zm5.874-1.32c4.064,0,6.574-3.027,6.574-6.806s-2.51-6.806-6.574-6.806H75.79V70.667Z"
              fill="#fff"/>
        <path d="M95.2,57.055V62.93h6.781a.845.845,0,0,1,.931.931V64.2a.865.865,0,0,1-.931.958H95.2v5.512h7.919a.857.857,0,0,1,.932.932v.388a.857.857,0,0,1-.932.932h-9.73a.846.846,0,0,1-.932-.932V55.735a.845.845,0,0,1,.932-.931h9.73a.857.857,0,0,1,.932.931v.388a.857.857,0,0,1-.932.932Z"
              fill="#fff"/>
        <path d="M108.328,71.987V55.735a.845.845,0,0,1,.932-.931h.88a.845.845,0,0,1,.932.931V70.667H118.4a.865.865,0,0,1,.957.932v.388a.865.865,0,0,1-.957.932H109.26A.846.846,0,0,1,108.328,71.987Z"
              fill="#fff"/>
        <path d="M122.745,71.987V55.735a.845.845,0,0,1,.932-.931h.88a.845.845,0,0,1,.932.931V70.667h7.323a.865.865,0,0,1,.958.932v.388a.865.865,0,0,1-.958.932h-9.135A.846.846,0,0,1,122.745,71.987Z"
              fill="#fff"/>
        <path d="M139.907,57.055V62.93h6.78a.845.845,0,0,1,.932.931V64.2a.865.865,0,0,1-.932.958h-6.78v5.512h7.919a.857.857,0,0,1,.931.932v.388a.857.857,0,0,1-.931.932H138.1a.846.846,0,0,1-.932-.932V55.735a.845.845,0,0,1,.932-.931h9.731a.856.856,0,0,1,.931.931v.388a.857.857,0,0,1-.931.932Z"
              fill="#fff"/>
        <path d="M20.033,91.658c0,2.924-2.433,4.839-6.056,4.839H7.559a.846.846,0,0,1-.932-.932V79.313a.846.846,0,0,1,.932-.931h5.59c3.468,0,6.03,1.76,6.03,4.684a4.138,4.138,0,0,1-3.416,4.141A4.373,4.373,0,0,1,20.033,91.658ZM9.37,80.634v5.719h2.744c3.079,0,4.244-1.527,4.244-3.08,0-1.734-1.5-2.639-3.236-2.639Zm7.868,10.921c0-1.605-1.346-3.132-4.555-3.132H9.37v5.823h4.581C15.867,94.246,17.238,93.185,17.238,91.555Z"
              fill="#fff"/>
        <path d="M26.947,80.634v5.874h6.78a.846.846,0,0,1,.932.931v.337a.865.865,0,0,1-.932.957h-6.78v5.513h7.919a.857.857,0,0,1,.931.932v.387a.857.857,0,0,1-.931.932H25.135a.846.846,0,0,1-.932-.932V79.313a.846.846,0,0,1,.932-.931h9.731a.857.857,0,0,1,.931.931V79.7a.857.857,0,0,1-.931.932Z"
              fill="#fff"/>
        <path d="M38.724,93.107a.8.8,0,0,1,.621-1.165l.75-.18c.57-.13.881.077,1.165.621a4.335,4.335,0,0,0,3.83,1.992c2.329,0,3.753-1.139,3.753-2.691,0-1.372-1.139-2.226-2.614-2.769l-2.692-.906c-3.416-1.139-4.244-3.183-4.244-4.865,0-3.131,2.744-5.046,5.874-5.046,2.848,0,4.866,1.371,5.694,3.416a.812.812,0,0,1-.621,1.164l-.647.207a.916.916,0,0,1-1.19-.6,3.291,3.291,0,0,0-3.209-1.76c-1.708,0-3.132.932-3.132,2.536,0,.75.233,1.734,2.3,2.51l2.691,1.01c3.054.957,4.451,2.976,4.451,4.917,0,3.261-2.588,5.279-6.366,5.279C41.933,96.782,39.656,95.229,38.724,93.107Z"
              fill="#fff"/>
        <path d="M73.488,95.565V79.313a.845.845,0,0,1,.931-.931h.389a1.324,1.324,0,0,1,1.164.569l9.265,12.526V79.313a.845.845,0,0,1,.931-.931h.88a.864.864,0,0,1,.957.931V95.565a.864.864,0,0,1-.957.932h-.362a1.326,1.326,0,0,1-1.165-.569l-9.29-12.577V95.565a.846.846,0,0,1-.932.932h-.88A.845.845,0,0,1,73.488,95.565Z"
              fill="#fff"/>
        <path d="M92.177,87.439c0-5.045,3.649-9.341,9.808-9.341a9.244,9.244,0,0,1,5.279,1.474.887.887,0,0,1,.311,1.294l-.234.414a.839.839,0,0,1-1.293.311,8.84,8.84,0,0,0-4.063-1.035,6.885,6.885,0,1,0,0,13.767,8.84,8.84,0,0,0,4.063-1.035.839.839,0,0,1,1.293.311l.234.414c.284.544.233.906-.156,1.19a9.212,9.212,0,0,1-5.434,1.579C95.826,96.782,92.177,92.486,92.177,87.439Z"
              fill="#fff"/>
        <path d="M110.037,87.439a9.42,9.42,0,1,1,9.419,9.343A9.371,9.371,0,0,1,110.037,87.439Zm16.044,0a6.63,6.63,0,1,0-6.625,6.884A6.7,6.7,0,0,0,126.081,87.439Z"
              fill="#fff"/>
        <path d="M133.022,95.565V79.313a.845.845,0,0,1,.931-.931h.388a1.325,1.325,0,0,1,1.165.569l9.265,12.526V79.313a.845.845,0,0,1,.932-.931h.879a.865.865,0,0,1,.958.931V95.565a.865.865,0,0,1-.958.932h-.362a1.324,1.324,0,0,1-1.164-.569l-9.291-12.577V95.565a.845.845,0,0,1-.932.932h-.88A.845.845,0,0,1,133.022,95.565Z"
              fill="#fff"/>
        <path d="M12.839,112.19a2.14,2.14,0,0,1-2.343,2.221H9.279v1.443a.5.5,0,0,1-.563.561H7.873a.5.5,0,0,1-.563-.561v-5.435a.5.5,0,0,1,.563-.561H10.5A2.218,2.218,0,0,1,12.839,112.19Zm-1.968.019a.631.631,0,0,0-.58-.666H9.279v1.3h1.012A.622.622,0,0,0,10.871,112.209Z"
              fill="#fff"/>
        <path d="M14.7,115.769l2.117-5.471a.627.627,0,0,1,.646-.44h.8a.637.637,0,0,1,.647.44l2.164,5.471c.148.385-.02.646-.442.646h-.908a.627.627,0,0,1-.646-.44l-.254-.655H16.878l-.234.646a.625.625,0,0,1-.637.449h-.863C14.732,116.415,14.554,116.154,14.7,115.769Zm3.8-1.986-.629-1.846-.684,1.846Z"
              fill="#fff"/>
        <path d="M28.177,110.419v.563a.5.5,0,0,1-.56.561H26.4v4.311a.5.5,0,0,1-.563.561h-.8a.5.5,0,0,1-.563-.561v-4.311H23.289a.5.5,0,0,1-.563-.561v-.563a.5.5,0,0,1,.563-.561h4.328A.5.5,0,0,1,28.177,110.419Z"
              fill="#fff"/>
        <path d="M33.427,114.205h-.468v1.649a.5.5,0,0,1-.563.561h-.844a.5.5,0,0,1-.56-.561v-5.435a.5.5,0,0,1,.56-.561h2.625a2.182,2.182,0,0,1,2.342,2.285,1.9,1.9,0,0,1-1.359,1.939c.084.62.384.91.769.91a1.239,1.239,0,0,0,.383-.047c.328-.094.412-.01.563.309l.13.272c.151.318.1.59-.2.73a3.094,3.094,0,0,1-1.283.263C33.82,116.519,33.5,114.879,33.427,114.205Zm.543-1.359a.619.619,0,0,0,.58-.637.629.629,0,0,0-.58-.666H32.959v1.3Z"
              fill="#fff"/>
        <path d="M39.781,115.854v-5.435a.5.5,0,0,1,.562-.561h.842a.5.5,0,0,1,.563.561v5.435a.5.5,0,0,1-.563.561h-.842A.5.5,0,0,1,39.781,115.854Z"
              fill="#fff"/>
        <path d="M44.746,115.826l.5-5.435a.526.526,0,0,1,.58-.533h.871a.635.635,0,0,1,.646.44l1.313,3.288,1.31-3.288a.638.638,0,0,1,.647-.44h.871a.529.529,0,0,1,.582.533l.5,5.435a.48.48,0,0,1-.533.589H51.2a.532.532,0,0,1-.59-.534l-.2-2.454-.946,2.483a.619.619,0,0,1-.646.44h-.338a.621.621,0,0,1-.647-.44l-.945-2.483-.2,2.454a.532.532,0,0,1-.59.534h-.824A.481.481,0,0,1,44.746,115.826Z"
              fill="#fff"/>
        <path d="M55.232,113.136a3.545,3.545,0,1,1,3.541,3.383A3.335,3.335,0,0,1,55.232,113.136Zm5.115,0a1.578,1.578,0,1,0-1.574,1.7A1.567,1.567,0,0,0,60.347,113.136Z"
              fill="#fff"/>
        <path d="M65.193,115.854v-5.435a.5.5,0,0,1,.562-.561H66.6a.5.5,0,0,1,.563.561v5.435a.5.5,0,0,1-.563.561h-.844A.5.5,0,0,1,65.193,115.854Z"
              fill="#fff"/>
        <path d="M70.365,115.854v-5.435a.5.5,0,0,1,.562-.561h.543a.772.772,0,0,1,.686.355l1.929,2.717v-2.511a.5.5,0,0,1,.563-.561h.842a.5.5,0,0,1,.562.561v5.435a.5.5,0,0,1-.562.561h-.533a.756.756,0,0,1-.676-.355l-1.947-2.773v2.567a.5.5,0,0,1-.563.561h-.844A.5.5,0,0,1,70.365,115.854Z"
              fill="#fff"/>
        <path d="M81.226,111.543v.854h1.789a.5.5,0,0,1,.563.561v.375a.506.506,0,0,1-.563.563H81.226v.833h2.145a.5.5,0,0,1,.562.562v.563a.5.5,0,0,1-.562.561H79.82a.5.5,0,0,1-.563-.561v-5.435a.5.5,0,0,1,.563-.561h3.551a.5.5,0,0,1,.562.561v.563a.5.5,0,0,1-.562.561Z"
              fill="#fff"/>
        <path d="M90.785,115.826l.5-5.435a.527.527,0,0,1,.58-.533h.873a.636.636,0,0,1,.646.44l1.311,3.288L96,110.3a.637.637,0,0,1,.647-.44h.871a.527.527,0,0,1,.58.533l.5,5.435a.479.479,0,0,1-.533.589H97.24a.531.531,0,0,1-.59-.534l-.2-2.454L95.5,115.91a.616.616,0,0,1-.646.44h-.336a.619.619,0,0,1-.647-.44l-.947-2.483-.195,2.454a.533.533,0,0,1-.592.534h-.824A.479.479,0,0,1,90.785,115.826Z"
              fill="#fff"/>
        <path d="M101.269,113.136a3.546,3.546,0,1,1,3.543,3.383A3.337,3.337,0,0,1,101.269,113.136Zm5.117,0a1.578,1.578,0,1,0-1.574,1.7A1.567,1.567,0,0,0,106.386,113.136Z"
              fill="#fff"/>
        <path d="M111.23,115.854v-5.435a.5.5,0,0,1,.563-.561h.542a.772.772,0,0,1,.686.355l1.93,2.717v-2.511a.5.5,0,0,1,.562-.561h.842a.5.5,0,0,1,.563.561v5.435a.5.5,0,0,1-.563.561h-.533a.756.756,0,0,1-.676-.355l-1.947-2.773v2.567a.5.5,0,0,1-.563.561h-.843A.5.5,0,0,1,111.23,115.854Z"
              fill="#fff"/>
        <path d="M120.123,115.854v-5.435a.5.5,0,0,1,.562-.561h2.522a3.279,3.279,0,1,1,0,6.557h-2.522A.5.5,0,0,1,120.123,115.854Zm2.81-1.125a1.594,1.594,0,1,0,0-3.186h-.842v3.186Z"
              fill="#fff"/>
        <path d="M129.419,115.854v-5.435a.5.5,0,0,1,.563-.561h.842a.5.5,0,0,1,.562.561v5.435a.5.5,0,0,1-.562.561h-.842A.5.5,0,0,1,129.419,115.854Z"
              fill="#fff"/>
        <path d="M134.226,115.769l2.117-5.471a.63.63,0,0,1,.647-.44h.8a.635.635,0,0,1,.646.44l2.164,5.471c.151.385-.017.646-.439.646h-.91a.629.629,0,0,1-.647-.44l-.252-.655H136.4l-.234.646a.625.625,0,0,1-.637.449h-.861C134.255,116.415,134.078,116.154,134.226,115.769Zm3.795-1.986-.627-1.846-.685,1.846Z"
              fill="#fff"/>
        <path d="M143.419,115.854v-5.435a.5.5,0,0,1,.563-.561h.842a.5.5,0,0,1,.562.561v4.31h2.381a.5.5,0,0,1,.561.562v.563a.5.5,0,0,1-.561.561h-3.785A.5.5,0,0,1,143.419,115.854Z"
              fill="#fff"/>
        <path d="M8.978,128.851l-1.949-5.462c-.139-.385.039-.646.451-.646h.936a.59.59,0,0,1,.628.477l.965,3.42.965-3.42a.589.589,0,0,1,.627-.477h.938c.412,0,.589.261.449.646l-1.967,5.462a.625.625,0,0,1-.637.449H9.615A.625.625,0,0,1,8.978,128.851Z"
              fill="#fff"/>
        <path d="M18.433,124.428v.854h1.789a.5.5,0,0,1,.563.561v.375a.506.506,0,0,1-.563.563H18.433v.833H20.58a.5.5,0,0,1,.562.562v.563a.5.5,0,0,1-.562.561H17.029a.5.5,0,0,1-.563-.561V123.3a.5.5,0,0,1,.563-.561H20.58a.5.5,0,0,1,.562.561v.563a.5.5,0,0,1-.562.561Z"
              fill="#fff"/>
        <path d="M24.375,126.021a3.434,3.434,0,0,1,3.654-3.382,3.35,3.35,0,0,1,2.08.693.485.485,0,0,1,.074.788l-.375.43c-.234.272-.476.253-.787.047a1.849,1.849,0,0,0-.992-.271,1.7,1.7,0,0,0,0,3.391,1.872,1.872,0,0,0,.992-.271c.311-.206.553-.226.787.047l.375.43c.244.282.244.553-.027.759a3.386,3.386,0,0,1-2.127.722A3.434,3.434,0,0,1,24.375,126.021Z"
              fill="#fff"/>
        <path d="M38.918,123.3v.563a.5.5,0,0,1-.563.561H37.138v4.311a.5.5,0,0,1-.562.561h-.807a.5.5,0,0,1-.562-.561v-4.311h-1.18a.5.5,0,0,1-.563-.561V123.3a.5.5,0,0,1,.563-.561h4.328A.5.5,0,0,1,38.918,123.3Z"
              fill="#fff"/>
        <path d="M44.269,124.428v.854h1.789a.5.5,0,0,1,.563.561v.375a.506.506,0,0,1-.563.563H44.269v.833h2.145a.5.5,0,0,1,.562.562v.563a.5.5,0,0,1-.562.561H42.863a.5.5,0,0,1-.563-.561V123.3a.5.5,0,0,1,.563-.561h3.551a.5.5,0,0,1,.562.561v.563a.5.5,0,0,1-.562.561Z"
              fill="#fff"/>
        <path d="M50.566,126.761V123.3a.5.5,0,0,1,.562-.561h.844a.5.5,0,0,1,.561.561v3.457a.858.858,0,0,0,.853.956.87.87,0,0,0,.871-.956V123.3a.5.5,0,0,1,.563-.561h.842a.5.5,0,0,1,.562.561v3.457a2.836,2.836,0,0,1-5.658,0Z"
              fill="#fff"/>
        <path d="M62.343,127.089h-.468v1.65a.5.5,0,0,1-.561.561H60.47a.5.5,0,0,1-.562-.561V123.3a.5.5,0,0,1,.562-.561h2.623a2.181,2.181,0,0,1,2.342,2.285,1.9,1.9,0,0,1-1.357,1.939c.084.619.382.909.767.909a1.255,1.255,0,0,0,.385-.046c.328-.094.412-.01.563.309l.13.272c.149.318.1.589-.2.73a3.107,3.107,0,0,1-1.283.263C62.738,129.4,62.419,127.764,62.343,127.089Zm.543-1.358a.621.621,0,0,0,.582-.637.63.63,0,0,0-.582-.666H61.875v1.3Z"
              fill="#fff"/>
        <path d="M73.777,128.739V123.3a.5.5,0,0,1,.562-.561h2.52a3.279,3.279,0,1,1,0,6.557h-2.52A.5.5,0,0,1,73.777,128.739Zm2.81-1.125a1.594,1.594,0,1,0,0-3.186h-.843v3.186Z"
              fill="#fff"/>
        <path d="M83.607,125.366l-.225-2.183a.358.358,0,0,1,.4-.44h.89a.352.352,0,0,1,.393.44l-.225,2.183a.4.4,0,0,1-.439.4h-.358A.4.4,0,0,1,83.607,125.366Z"
              fill="#fff"/>
        <path d="M90.55,124.428v.854h1.789a.5.5,0,0,1,.563.561v.375a.506.506,0,0,1-.563.563H90.55v.833h2.145a.5.5,0,0,1,.562.562v.563a.5.5,0,0,1-.562.561H89.144a.5.5,0,0,1-.562-.561V123.3a.5.5,0,0,1,.562-.561h3.551a.5.5,0,0,1,.562.561v.563a.5.5,0,0,1-.562.561Zm-.365-2.511.412-.842a.335.335,0,0,1,.328-.206h1.133c.244,0,.318.159.151.346l-.817.881a.44.44,0,0,1-.346.15H90.39C90.175,122.246,90.091,122.115,90.185,121.917Z"
              fill="#fff"/>
        <path d="M96.716,128.71l.5-5.434a.529.529,0,0,1,.581-.533h.873a.636.636,0,0,1,.646.44l1.311,3.288,1.312-3.288a.635.635,0,0,1,.647-.44h.871a.528.528,0,0,1,.58.533l.5,5.434a.479.479,0,0,1-.533.59h-.825a.531.531,0,0,1-.589-.534l-.2-2.454-.947,2.482a.616.616,0,0,1-.646.441h-.336a.617.617,0,0,1-.647-.441l-.947-2.482-.195,2.454a.534.534,0,0,1-.592.534H97.25A.48.48,0,0,1,96.716,128.71Z"
              fill="#fff"/>
        <path d="M107.763,126.021a3.546,3.546,0,1,1,3.543,3.383A3.337,3.337,0,0,1,107.763,126.021Zm5.117,0a1.578,1.578,0,1,0-1.574,1.7A1.567,1.567,0,0,0,112.88,126.021Z"
              fill="#fff"/>
        <path d="M123.214,123.3v.563a.5.5,0,0,1-.56.561h-1.219v4.311a.5.5,0,0,1-.562.561h-.805a.5.5,0,0,1-.563-.561v-4.311h-1.179a.5.5,0,0,1-.563-.561V123.3a.5.5,0,0,1,.563-.561h4.328A.5.5,0,0,1,123.214,123.3Z"
              fill="#fff"/>
        <path d="M126.6,128.739V123.3a.5.5,0,0,1,.563-.561H128a.5.5,0,0,1,.563.561v5.435a.5.5,0,0,1-.563.561h-.841A.5.5,0,0,1,126.6,128.739Z"
              fill="#fff"/>
        <path d="M132.005,126.021a3.545,3.545,0,1,1,3.541,3.383A3.335,3.335,0,0,1,132.005,126.021Zm5.116,0a1.579,1.579,0,1,0-1.575,1.7A1.568,1.568,0,0,0,137.121,126.021Z"
              fill="#fff"/>
        <path d="M142.529,128.739V123.3a.5.5,0,0,1,.562-.561h.543a.772.772,0,0,1,.686.355l1.93,2.717V123.3a.5.5,0,0,1,.562-.561h.842a.5.5,0,0,1,.562.561v5.435a.5.5,0,0,1-.562.561h-.533a.756.756,0,0,1-.676-.355l-1.947-2.774v2.568a.5.5,0,0,1-.563.561h-.844A.5.5,0,0,1,142.529,128.739Z"
              fill="#fff"/>
        <path d="M54.4,97.088a1.359,1.359,0,0,1-1.257-1.876L59.9,78.723a1.36,1.36,0,0,1,2.518,1.031l-6.752,16.49A1.362,1.362,0,0,1,54.4,97.088Z"
              fill="#fff"/>
        <path d="M67.911,97.088a1.362,1.362,0,0,1-1.26-.844L59.9,79.754a1.36,1.36,0,0,1,2.518-1.031l6.752,16.489a1.359,1.359,0,0,1-1.258,1.876Z"
              fill="#fff"/>
        <path d="M54.4,73.182a1.375,1.375,0,0,1-.514-.1,1.36,1.36,0,0,1-.743-1.775L59.9,54.816a1.361,1.361,0,0,1,2.518,1.032L55.665,72.337A1.361,1.361,0,0,1,54.4,73.182Z"
              fill="#fff"/>
        <path d="M67.911,73.182a1.361,1.361,0,0,1-1.26-.845L59.9,55.848a1.361,1.361,0,0,1,2.518-1.032l6.752,16.49a1.361,1.361,0,0,1-.743,1.775A1.38,1.38,0,0,1,67.911,73.182Z"
              fill="#fff"/>
        <path d="M99.469,100.294h1.263a.715.715,0,0,0,.676-.481l1.275-3.656a.716.716,0,0,0-.676-.952h-1.264a.717.717,0,0,0-.676.481l-1.274,3.656A.716.716,0,0,0,99.469,100.294Z"
              fill="#fff"/>
        <path d="M14.036,49.176a1.076,1.076,0,0,1-1-1.483l3.369-8.348a1.075,1.075,0,0,1,.915-.665l16.7-1.27a1.064,1.064,0,0,1,.863.333,1.077,1.077,0,0,1,.285.879c-.177,1.356-.311,2.362-.41,3.11,1.9-1.029,4.938-2.7,7.225-3.963l.8-6.206a1.076,1.076,0,0,1,.472-.759l6.424-4.26.546-5.816a1.075,1.075,0,0,1,.8-.941l7.9-2.027a1.091,1.091,0,0,1,.57.009l3.4.993-.023-2.827a1.078,1.078,0,0,1-.6-1.014l.084-1.864a1.078,1.078,0,0,1,.522-.874,2.186,2.186,0,0,0,.47-.378,2.748,2.748,0,0,1,1.724-1.17.415.415,0,0,0,.094-.079,1.077,1.077,0,0,1,.92-.889l5.083-.673a1.075,1.075,0,0,1,1.036.47,6.038,6.038,0,0,0,.718.9,6.133,6.133,0,0,1,2.505,2.8l.329.329a1.076,1.076,0,0,1-.4,1.775l.016,7.58,17.466.312a1.078,1.078,0,0,1,.546-.668l5.873-3.006a1.076,1.076,0,0,1,1.556.812l.9,6.58,5.154-.922a1.074,1.074,0,0,1,1.25.881l1.725,10.286,33.974-2.651a1.076,1.076,0,0,1,1.1.719l3.565,10.242a1.076,1.076,0,0,1-2.032.708l-3.293-9.459-34.129,2.662a1.065,1.065,0,0,1-1.145-.894l-1.709-10.185-5.186.928a1.075,1.075,0,0,1-1.255-.914l-.843-6.186L94.93,24.123l-.008.178a1.074,1.074,0,0,1-1.074,1.03h-.019l-19.542-.349a1.075,1.075,0,0,1-1.056-1.073l-.021-9.567a1.069,1.069,0,0,1,.171-.585c0-.017,0-.035,0-.053a5.735,5.735,0,0,0-1.326-1.376,3.041,3.041,0,0,1-1.234-1.115l-3.829.507A2.506,2.506,0,0,1,65.7,12.7a1.443,1.443,0,0,0-.493.2,2.8,2.8,0,0,1-.716.786l-.017.389a1.074,1.074,0,0,1,.551.931l.042,5.188a1.075,1.075,0,0,1-1.377,1.041l-4.5-1.315-6.882,1.766-.523,5.574a1.075,1.075,0,0,1-.476.8l-6.443,4.274-.811,6.259a1.075,1.075,0,0,1-.546.8s-2.381,1.316-4.769,2.625c-5.417,2.969-5.419,2.97-6.018,2.469a1.075,1.075,0,0,1-.363-1.053c.044-.264.292-2.116.511-3.774L18.15,40.775l-3.118,7.731A1.077,1.077,0,0,1,14.036,49.176ZM72.1,12.345l.021.007Zm-6.941-1.614v0Zm7.644-.42.032.012Z"
              fill="#fff"/>
        <path d="M67.969,19.521a1.075,1.075,0,0,1-1.075-1.076V15.583a1.075,1.075,0,1,1,2.15,0v2.862A1.075,1.075,0,0,1,67.969,19.521Z"
              fill="#fff"/>
        <rect width="10.383" height="2.328" rx="1.164" transform="matrix(0.917, -0.4, 0.4, 0.917, 4.898, 50.883)"
              fill="#fff"/>
        <path d="M12.917,63.861c0-5.047,3.65-9.342,9.809-9.342A9.234,9.234,0,0,1,28,55.994a.885.885,0,0,1,.311,1.294l-.233.414a.841.841,0,0,1-1.3.311,8.833,8.833,0,0,0-4.062-1.035,6.885,6.885,0,1,0,0,13.767,8.833,8.833,0,0,0,4.062-1.035.84.84,0,0,1,1.3.31l.233.415c.285.543.232.9-.155,1.19A9.217,9.217,0,0,1,22.726,73.2C16.567,73.2,12.917,68.907,12.917,63.861Z"
              fill="#FFF"/>
        <path d="M32.46,71.987V55.735a.845.845,0,0,1,.932-.931h.88a.844.844,0,0,1,.931.931V71.987a.845.845,0,0,1-.931.932h-.88A.846.846,0,0,1,32.46,71.987Z"
              fill="#FFF"/>
        <path d="M53.347,55.735v.388a.846.846,0,0,1-.932.932H47.369V71.987a.846.846,0,0,1-.932.932h-.854a.845.845,0,0,1-.931-.932V57.055H39.6a.857.857,0,0,1-.932-.932v-.388A.857.857,0,0,1,39.6,54.8h12.81A.845.845,0,0,1,53.347,55.735Z"
              fill="#FFF"/>
        <path d="M73.047,71.987V55.735a.845.845,0,0,1,.932-.931h5c5.771,0,9.316,4.062,9.316,9.057s-3.545,9.058-9.316,9.058h-5A.846.846,0,0,1,73.047,71.987Zm5.874-1.32c4.064,0,6.574-3.027,6.574-6.806s-2.51-6.806-6.574-6.806H75.79V70.667Z"
              fill="#FFF"/>
        <path d="M95.2,57.055V62.93h6.781a.845.845,0,0,1,.931.931V64.2a.865.865,0,0,1-.931.958H95.2v5.512h7.919a.857.857,0,0,1,.932.932v.388a.857.857,0,0,1-.932.932h-9.73a.846.846,0,0,1-.932-.932V55.735a.845.845,0,0,1,.932-.931h9.73a.857.857,0,0,1,.932.931v.388a.857.857,0,0,1-.932.932Z"
              fill="#FFF"/>
        <path d="M108.328,71.987V55.735a.845.845,0,0,1,.932-.931h.88a.845.845,0,0,1,.932.931V70.667H118.4a.865.865,0,0,1,.957.932v.388a.865.865,0,0,1-.957.932H109.26A.846.846,0,0,1,108.328,71.987Z"
              fill="#FFF"/>
        <path d="M122.745,71.987V55.735a.845.845,0,0,1,.932-.931h.88a.845.845,0,0,1,.932.931V70.667h7.323a.865.865,0,0,1,.958.932v.388a.865.865,0,0,1-.958.932h-9.135A.846.846,0,0,1,122.745,71.987Z"
              fill="#FFF"/>
        <path d="M139.907,57.055V62.93h6.78a.845.845,0,0,1,.932.931V64.2a.865.865,0,0,1-.932.958h-6.78v5.512h7.919a.857.857,0,0,1,.931.932v.388a.857.857,0,0,1-.931.932H138.1a.846.846,0,0,1-.932-.932V55.735a.845.845,0,0,1,.932-.931h9.731a.856.856,0,0,1,.931.931v.388a.857.857,0,0,1-.931.932Z"
              fill="#FFF"/>
        <path d="M20.033,91.658c0,2.924-2.433,4.839-6.056,4.839H7.559a.846.846,0,0,1-.932-.932V79.313a.846.846,0,0,1,.932-.931h5.59c3.468,0,6.03,1.76,6.03,4.684a4.138,4.138,0,0,1-3.416,4.141A4.373,4.373,0,0,1,20.033,91.658ZM9.37,80.634v5.719h2.744c3.079,0,4.244-1.527,4.244-3.08,0-1.734-1.5-2.639-3.236-2.639Zm7.868,10.921c0-1.605-1.346-3.132-4.555-3.132H9.37v5.823h4.581C15.867,94.246,17.238,93.185,17.238,91.555Z"
              fill="#FFF"/>
        <path d="M26.947,80.634v5.874h6.78a.846.846,0,0,1,.932.931v.337a.865.865,0,0,1-.932.957h-6.78v5.513h7.919a.857.857,0,0,1,.931.932v.387a.857.857,0,0,1-.931.932H25.135a.846.846,0,0,1-.932-.932V79.313a.846.846,0,0,1,.932-.931h9.731a.857.857,0,0,1,.931.931V79.7a.857.857,0,0,1-.931.932Z"
              fill="#FFF"/>
        <path d="M38.724,93.107a.8.8,0,0,1,.621-1.165l.75-.18c.57-.13.881.077,1.165.621a4.335,4.335,0,0,0,3.83,1.992c2.329,0,3.753-1.139,3.753-2.691,0-1.372-1.139-2.226-2.614-2.769l-2.692-.906c-3.416-1.139-4.244-3.183-4.244-4.865,0-3.131,2.744-5.046,5.874-5.046,2.848,0,4.866,1.371,5.694,3.416a.812.812,0,0,1-.621,1.164l-.647.207a.916.916,0,0,1-1.19-.6,3.291,3.291,0,0,0-3.209-1.76c-1.708,0-3.132.932-3.132,2.536,0,.75.233,1.734,2.3,2.51l2.691,1.01c3.054.957,4.451,2.976,4.451,4.917,0,3.261-2.588,5.279-6.366,5.279C41.933,96.782,39.656,95.229,38.724,93.107Z"
              fill="#FFF"/>
        <path d="M73.488,95.565V79.313a.845.845,0,0,1,.931-.931h.389a1.324,1.324,0,0,1,1.164.569l9.265,12.526V79.313a.845.845,0,0,1,.931-.931h.88a.864.864,0,0,1,.957.931V95.565a.864.864,0,0,1-.957.932h-.362a1.326,1.326,0,0,1-1.165-.569l-9.29-12.577V95.565a.846.846,0,0,1-.932.932h-.88A.845.845,0,0,1,73.488,95.565Z"
              fill="#FFF"/>
        <path d="M92.177,87.439c0-5.045,3.649-9.341,9.808-9.341a9.244,9.244,0,0,1,5.279,1.474.887.887,0,0,1,.311,1.294l-.234.414a.839.839,0,0,1-1.293.311,8.84,8.84,0,0,0-4.063-1.035,6.885,6.885,0,1,0,0,13.767,8.84,8.84,0,0,0,4.063-1.035.839.839,0,0,1,1.293.311l.234.414c.284.544.233.906-.156,1.19a9.212,9.212,0,0,1-5.434,1.579C95.826,96.782,92.177,92.486,92.177,87.439Z"
              fill="#FFF"/>
        <path d="M110.037,87.439a9.42,9.42,0,1,1,9.419,9.343A9.371,9.371,0,0,1,110.037,87.439Zm16.044,0a6.63,6.63,0,1,0-6.625,6.884A6.7,6.7,0,0,0,126.081,87.439Z"
              fill="#FFF"/>
        <path d="M133.022,95.565V79.313a.845.845,0,0,1,.931-.931h.388a1.325,1.325,0,0,1,1.165.569l9.265,12.526V79.313a.845.845,0,0,1,.932-.931h.879a.865.865,0,0,1,.958.931V95.565a.865.865,0,0,1-.958.932h-.362a1.324,1.324,0,0,1-1.164-.569l-9.291-12.577V95.565a.845.845,0,0,1-.932.932h-.88A.845.845,0,0,1,133.022,95.565Z"
              fill="#FFF"/>
        <path d="M12.839,112.19a2.14,2.14,0,0,1-2.343,2.221H9.279v1.443a.5.5,0,0,1-.563.561H7.873a.5.5,0,0,1-.563-.561v-5.435a.5.5,0,0,1,.563-.561H10.5A2.218,2.218,0,0,1,12.839,112.19Zm-1.968.019a.631.631,0,0,0-.58-.666H9.279v1.3h1.012A.622.622,0,0,0,10.871,112.209Z"
              fill="#FFF"/>
        <path d="M14.7,115.769l2.117-5.471a.627.627,0,0,1,.646-.44h.8a.637.637,0,0,1,.647.44l2.164,5.471c.148.385-.02.646-.442.646h-.908a.627.627,0,0,1-.646-.44l-.254-.655H16.878l-.234.646a.625.625,0,0,1-.637.449h-.863C14.732,116.415,14.554,116.154,14.7,115.769Zm3.8-1.986-.629-1.846-.684,1.846Z"
              fill="#FFF"/>
        <path d="M28.177,110.419v.563a.5.5,0,0,1-.56.561H26.4v4.311a.5.5,0,0,1-.563.561h-.8a.5.5,0,0,1-.563-.561v-4.311H23.289a.5.5,0,0,1-.563-.561v-.563a.5.5,0,0,1,.563-.561h4.328A.5.5,0,0,1,28.177,110.419Z"
              fill="#FFF"/>
        <path d="M33.427,114.205h-.468v1.649a.5.5,0,0,1-.563.561h-.844a.5.5,0,0,1-.56-.561v-5.435a.5.5,0,0,1,.56-.561h2.625a2.182,2.182,0,0,1,2.342,2.285,1.9,1.9,0,0,1-1.359,1.939c.084.62.384.91.769.91a1.239,1.239,0,0,0,.383-.047c.328-.094.412-.01.563.309l.13.272c.151.318.1.59-.2.73a3.094,3.094,0,0,1-1.283.263C33.82,116.519,33.5,114.879,33.427,114.205Zm.543-1.359a.619.619,0,0,0,.58-.637.629.629,0,0,0-.58-.666H32.959v1.3Z"
              fill="#FFF"/>
        <path d="M39.781,115.854v-5.435a.5.5,0,0,1,.562-.561h.842a.5.5,0,0,1,.563.561v5.435a.5.5,0,0,1-.563.561h-.842A.5.5,0,0,1,39.781,115.854Z"
              fill="#FFF"/>
        <path d="M44.746,115.826l.5-5.435a.526.526,0,0,1,.58-.533h.871a.635.635,0,0,1,.646.44l1.313,3.288,1.31-3.288a.638.638,0,0,1,.647-.44h.871a.529.529,0,0,1,.582.533l.5,5.435a.48.48,0,0,1-.533.589H51.2a.532.532,0,0,1-.59-.534l-.2-2.454-.946,2.483a.619.619,0,0,1-.646.44h-.338a.621.621,0,0,1-.647-.44l-.945-2.483-.2,2.454a.532.532,0,0,1-.59.534h-.824A.481.481,0,0,1,44.746,115.826Z"
              fill="#FFF"/>
        <path d="M55.232,113.136a3.545,3.545,0,1,1,3.541,3.383A3.335,3.335,0,0,1,55.232,113.136Zm5.115,0a1.578,1.578,0,1,0-1.574,1.7A1.567,1.567,0,0,0,60.347,113.136Z"
              fill="#FFF"/>
        <path d="M65.193,115.854v-5.435a.5.5,0,0,1,.562-.561H66.6a.5.5,0,0,1,.563.561v5.435a.5.5,0,0,1-.563.561h-.844A.5.5,0,0,1,65.193,115.854Z"
              fill="#FFF"/>
        <path d="M70.365,115.854v-5.435a.5.5,0,0,1,.562-.561h.543a.772.772,0,0,1,.686.355l1.929,2.717v-2.511a.5.5,0,0,1,.563-.561h.842a.5.5,0,0,1,.562.561v5.435a.5.5,0,0,1-.562.561h-.533a.756.756,0,0,1-.676-.355l-1.947-2.773v2.567a.5.5,0,0,1-.563.561h-.844A.5.5,0,0,1,70.365,115.854Z"
              fill="#FFF"/>
        <path d="M81.226,111.543v.854h1.789a.5.5,0,0,1,.563.561v.375a.506.506,0,0,1-.563.563H81.226v.833h2.145a.5.5,0,0,1,.562.562v.563a.5.5,0,0,1-.562.561H79.82a.5.5,0,0,1-.563-.561v-5.435a.5.5,0,0,1,.563-.561h3.551a.5.5,0,0,1,.562.561v.563a.5.5,0,0,1-.562.561Z"
              fill="#FFF"/>
        <path d="M90.785,115.826l.5-5.435a.527.527,0,0,1,.58-.533h.873a.636.636,0,0,1,.646.44l1.311,3.288L96,110.3a.637.637,0,0,1,.647-.44h.871a.527.527,0,0,1,.58.533l.5,5.435a.479.479,0,0,1-.533.589H97.24a.531.531,0,0,1-.59-.534l-.2-2.454L95.5,115.91a.616.616,0,0,1-.646.44h-.336a.619.619,0,0,1-.647-.44l-.947-2.483-.195,2.454a.533.533,0,0,1-.592.534h-.824A.479.479,0,0,1,90.785,115.826Z"
              fill="#FFF"/>
        <path d="M101.269,113.136a3.546,3.546,0,1,1,3.543,3.383A3.337,3.337,0,0,1,101.269,113.136Zm5.117,0a1.578,1.578,0,1,0-1.574,1.7A1.567,1.567,0,0,0,106.386,113.136Z"
              fill="#FFF"/>
        <path d="M111.23,115.854v-5.435a.5.5,0,0,1,.563-.561h.542a.772.772,0,0,1,.686.355l1.93,2.717v-2.511a.5.5,0,0,1,.562-.561h.842a.5.5,0,0,1,.563.561v5.435a.5.5,0,0,1-.563.561h-.533a.756.756,0,0,1-.676-.355l-1.947-2.773v2.567a.5.5,0,0,1-.563.561h-.843A.5.5,0,0,1,111.23,115.854Z"
              fill="#FFF"/>
        <path d="M120.123,115.854v-5.435a.5.5,0,0,1,.562-.561h2.522a3.279,3.279,0,1,1,0,6.557h-2.522A.5.5,0,0,1,120.123,115.854Zm2.81-1.125a1.594,1.594,0,1,0,0-3.186h-.842v3.186Z"
              fill="#FFF"/>
        <path d="M129.419,115.854v-5.435a.5.5,0,0,1,.563-.561h.842a.5.5,0,0,1,.562.561v5.435a.5.5,0,0,1-.562.561h-.842A.5.5,0,0,1,129.419,115.854Z"
              fill="#FFF"/>
        <path d="M134.226,115.769l2.117-5.471a.63.63,0,0,1,.647-.44h.8a.635.635,0,0,1,.646.44l2.164,5.471c.151.385-.017.646-.439.646h-.91a.629.629,0,0,1-.647-.44l-.252-.655H136.4l-.234.646a.625.625,0,0,1-.637.449h-.861C134.255,116.415,134.078,116.154,134.226,115.769Zm3.795-1.986-.627-1.846-.685,1.846Z"
              fill="#FFF"/>
        <path d="M143.419,115.854v-5.435a.5.5,0,0,1,.563-.561h.842a.5.5,0,0,1,.562.561v4.31h2.381a.5.5,0,0,1,.561.562v.563a.5.5,0,0,1-.561.561h-3.785A.5.5,0,0,1,143.419,115.854Z"
              fill="#FFF"/>
        <path d="M8.978,128.851l-1.949-5.462c-.139-.385.039-.646.451-.646h.936a.59.59,0,0,1,.628.477l.965,3.42.965-3.42a.589.589,0,0,1,.627-.477h.938c.412,0,.589.261.449.646l-1.967,5.462a.625.625,0,0,1-.637.449H9.615A.625.625,0,0,1,8.978,128.851Z"
              fill="#FFF"/>
        <path d="M18.433,124.428v.854h1.789a.5.5,0,0,1,.563.561v.375a.506.506,0,0,1-.563.563H18.433v.833H20.58a.5.5,0,0,1,.562.562v.563a.5.5,0,0,1-.562.561H17.029a.5.5,0,0,1-.563-.561V123.3a.5.5,0,0,1,.563-.561H20.58a.5.5,0,0,1,.562.561v.563a.5.5,0,0,1-.562.561Z"
              fill="#FFF"/>
        <path d="M24.375,126.021a3.434,3.434,0,0,1,3.654-3.382,3.35,3.35,0,0,1,2.08.693.485.485,0,0,1,.074.788l-.375.43c-.234.272-.476.253-.787.047a1.849,1.849,0,0,0-.992-.271,1.7,1.7,0,0,0,0,3.391,1.872,1.872,0,0,0,.992-.271c.311-.206.553-.226.787.047l.375.43c.244.282.244.553-.027.759a3.386,3.386,0,0,1-2.127.722A3.434,3.434,0,0,1,24.375,126.021Z"
              fill="#FFF"/>
        <path d="M38.918,123.3v.563a.5.5,0,0,1-.563.561H37.138v4.311a.5.5,0,0,1-.562.561h-.807a.5.5,0,0,1-.562-.561v-4.311h-1.18a.5.5,0,0,1-.563-.561V123.3a.5.5,0,0,1,.563-.561h4.328A.5.5,0,0,1,38.918,123.3Z"
              fill="#FFF"/>
        <path d="M44.269,124.428v.854h1.789a.5.5,0,0,1,.563.561v.375a.506.506,0,0,1-.563.563H44.269v.833h2.145a.5.5,0,0,1,.562.562v.563a.5.5,0,0,1-.562.561H42.863a.5.5,0,0,1-.563-.561V123.3a.5.5,0,0,1,.563-.561h3.551a.5.5,0,0,1,.562.561v.563a.5.5,0,0,1-.562.561Z"
              fill="#FFF"/>
        <path d="M50.566,126.761V123.3a.5.5,0,0,1,.562-.561h.844a.5.5,0,0,1,.561.561v3.457a.858.858,0,0,0,.853.956.87.87,0,0,0,.871-.956V123.3a.5.5,0,0,1,.563-.561h.842a.5.5,0,0,1,.562.561v3.457a2.836,2.836,0,0,1-5.658,0Z"
              fill="#FFF"/>
        <path d="M62.343,127.089h-.468v1.65a.5.5,0,0,1-.561.561H60.47a.5.5,0,0,1-.562-.561V123.3a.5.5,0,0,1,.562-.561h2.623a2.181,2.181,0,0,1,2.342,2.285,1.9,1.9,0,0,1-1.357,1.939c.084.619.382.909.767.909a1.255,1.255,0,0,0,.385-.046c.328-.094.412-.01.563.309l.13.272c.149.318.1.589-.2.73a3.107,3.107,0,0,1-1.283.263C62.738,129.4,62.419,127.764,62.343,127.089Zm.543-1.358a.621.621,0,0,0,.582-.637.63.63,0,0,0-.582-.666H61.875v1.3Z"
              fill="#FFF"/>
        <path d="M73.777,128.739V123.3a.5.5,0,0,1,.562-.561h2.52a3.279,3.279,0,1,1,0,6.557h-2.52A.5.5,0,0,1,73.777,128.739Zm2.81-1.125a1.594,1.594,0,1,0,0-3.186h-.843v3.186Z"
              fill="#FFF"/>
        <path d="M83.607,125.366l-.225-2.183a.358.358,0,0,1,.4-.44h.89a.352.352,0,0,1,.393.44l-.225,2.183a.4.4,0,0,1-.439.4h-.358A.4.4,0,0,1,83.607,125.366Z"
              fill="#FFF"/>
        <path d="M90.55,124.428v.854h1.789a.5.5,0,0,1,.563.561v.375a.506.506,0,0,1-.563.563H90.55v.833h2.145a.5.5,0,0,1,.562.562v.563a.5.5,0,0,1-.562.561H89.144a.5.5,0,0,1-.562-.561V123.3a.5.5,0,0,1,.562-.561h3.551a.5.5,0,0,1,.562.561v.563a.5.5,0,0,1-.562.561Zm-.365-2.511.412-.842a.335.335,0,0,1,.328-.206h1.133c.244,0,.318.159.151.346l-.817.881a.44.44,0,0,1-.346.15H90.39C90.175,122.246,90.091,122.115,90.185,121.917Z"
              fill="#FFF"/>
        <path d="M96.716,128.71l.5-5.434a.529.529,0,0,1,.581-.533h.873a.636.636,0,0,1,.646.44l1.311,3.288,1.312-3.288a.635.635,0,0,1,.647-.44h.871a.528.528,0,0,1,.58.533l.5,5.434a.479.479,0,0,1-.533.59h-.825a.531.531,0,0,1-.589-.534l-.2-2.454-.947,2.482a.616.616,0,0,1-.646.441h-.336a.617.617,0,0,1-.647-.441l-.947-2.482-.195,2.454a.534.534,0,0,1-.592.534H97.25A.48.48,0,0,1,96.716,128.71Z"
              fill="#FFF"/>
        <path d="M107.763,126.021a3.546,3.546,0,1,1,3.543,3.383A3.337,3.337,0,0,1,107.763,126.021Zm5.117,0a1.578,1.578,0,1,0-1.574,1.7A1.567,1.567,0,0,0,112.88,126.021Z"
              fill="#FFF"/>
        <path d="M123.214,123.3v.563a.5.5,0,0,1-.56.561h-1.219v4.311a.5.5,0,0,1-.562.561h-.805a.5.5,0,0,1-.563-.561v-4.311h-1.179a.5.5,0,0,1-.563-.561V123.3a.5.5,0,0,1,.563-.561h4.328A.5.5,0,0,1,123.214,123.3Z"
              fill="#FFF"/>
        <path d="M126.6,128.739V123.3a.5.5,0,0,1,.563-.561H128a.5.5,0,0,1,.563.561v5.435a.5.5,0,0,1-.563.561h-.841A.5.5,0,0,1,126.6,128.739Z"
              fill="#FFF"/>
        <path d="M132.005,126.021a3.545,3.545,0,1,1,3.541,3.383A3.335,3.335,0,0,1,132.005,126.021Zm5.116,0a1.579,1.579,0,1,0-1.575,1.7A1.568,1.568,0,0,0,137.121,126.021Z"
              fill="#FFF"/>
        <path d="M142.529,128.739V123.3a.5.5,0,0,1,.562-.561h.543a.772.772,0,0,1,.686.355l1.93,2.717V123.3a.5.5,0,0,1,.562-.561h.842a.5.5,0,0,1,.562.561v5.435a.5.5,0,0,1-.562.561h-.533a.756.756,0,0,1-.676-.355l-1.947-2.774v2.568a.5.5,0,0,1-.563.561h-.844A.5.5,0,0,1,142.529,128.739Z"
              fill="#FFF"/>
        <path d="M54.4,97.088a1.359,1.359,0,0,1-1.257-1.876L59.9,78.723a1.36,1.36,0,0,1,2.518,1.031l-6.752,16.49A1.362,1.362,0,0,1,54.4,97.088Z"
              fill="#FFF"/>
        <path d="M67.911,97.088a1.362,1.362,0,0,1-1.26-.844L59.9,79.754a1.36,1.36,0,0,1,2.518-1.031l6.752,16.489a1.359,1.359,0,0,1-1.258,1.876Z"
              fill="#FFF"/>
        <path d="M54.4,73.182a1.375,1.375,0,0,1-.514-.1,1.36,1.36,0,0,1-.743-1.775L59.9,54.816a1.361,1.361,0,0,1,2.518,1.032L55.665,72.337A1.361,1.361,0,0,1,54.4,73.182Z"
              fill="#FFF"/>
        <path d="M67.911,73.182a1.361,1.361,0,0,1-1.26-.845L59.9,55.848a1.361,1.361,0,0,1,2.518-1.032l6.752,16.49a1.361,1.361,0,0,1-.743,1.775A1.38,1.38,0,0,1,67.911,73.182Z"
              fill="#FFF"/>
        <path d="M99.469,100.294h1.263a.715.715,0,0,0,.676-.481l1.275-3.656a.716.716,0,0,0-.676-.952h-1.264a.717.717,0,0,0-.676.481l-1.274,3.656A.716.716,0,0,0,99.469,100.294Z"
              fill="#FFF"/>
        <path d="M99.469,100.294h1.263a.715.715,0,0,0,.676-.481l1.275-3.656a.716.716,0,0,0-.676-.952h-1.264a.717.717,0,0,0-.676.481l-1.274,3.656A.716.716,0,0,0,99.469,100.294Z"
              fill="#FFF"/>
        <path d="M14.036,49.176a1.076,1.076,0,0,1-1-1.483l3.369-8.348a1.075,1.075,0,0,1,.915-.665l16.7-1.27a1.064,1.064,0,0,1,.863.333,1.077,1.077,0,0,1,.285.879c-.177,1.356-.311,2.362-.41,3.11,1.9-1.029,4.938-2.7,7.225-3.963l.8-6.206a1.076,1.076,0,0,1,.472-.759l6.424-4.26.546-5.816a1.075,1.075,0,0,1,.8-.941l7.9-2.027a1.091,1.091,0,0,1,.57.009l3.4.993-.023-2.827a1.078,1.078,0,0,1-.6-1.014l.084-1.864a1.078,1.078,0,0,1,.522-.874,2.186,2.186,0,0,0,.47-.378,2.748,2.748,0,0,1,1.724-1.17.415.415,0,0,0,.094-.079,1.077,1.077,0,0,1,.92-.889l5.083-.673a1.075,1.075,0,0,1,1.036.47,6.038,6.038,0,0,0,.718.9,6.133,6.133,0,0,1,2.505,2.8l.329.329a1.076,1.076,0,0,1-.4,1.775l.016,7.58,17.466.312a1.078,1.078,0,0,1,.546-.668l5.873-3.006a1.076,1.076,0,0,1,1.556.812l.9,6.58,5.154-.922a1.074,1.074,0,0,1,1.25.881l1.725,10.286,33.974-2.651a1.076,1.076,0,0,1,1.1.719l3.565,10.242a1.076,1.076,0,0,1-2.032.708l-3.293-9.459-34.129,2.662a1.065,1.065,0,0,1-1.145-.894l-1.709-10.185-5.186.928a1.075,1.075,0,0,1-1.255-.914l-.843-6.186L94.93,24.123l-.008.178a1.074,1.074,0,0,1-1.074,1.03h-.019l-19.542-.349a1.075,1.075,0,0,1-1.056-1.073l-.021-9.567a1.069,1.069,0,0,1,.171-.585c0-.017,0-.035,0-.053a5.735,5.735,0,0,0-1.326-1.376,3.041,3.041,0,0,1-1.234-1.115l-3.829.507A2.506,2.506,0,0,1,65.7,12.7a1.443,1.443,0,0,0-.493.2,2.8,2.8,0,0,1-.716.786l-.017.389a1.074,1.074,0,0,1,.551.931l.042,5.188a1.075,1.075,0,0,1-1.377,1.041l-4.5-1.315-6.882,1.766-.523,5.574a1.075,1.075,0,0,1-.476.8l-6.443,4.274-.811,6.259a1.075,1.075,0,0,1-.546.8s-2.381,1.316-4.769,2.625c-5.417,2.969-5.419,2.97-6.018,2.469a1.075,1.075,0,0,1-.363-1.053c.044-.264.292-2.116.511-3.774L18.15,40.775l-3.118,7.731A1.077,1.077,0,0,1,14.036,49.176ZM72.1,12.345l.021.007Zm-6.941-1.614v0Zm7.644-.42.032.012Z"
              fill="#FFF"/>
        <path d="M67.969,19.521a1.075,1.075,0,0,1-1.075-1.076V15.583a1.075,1.075,0,1,1,2.15,0v2.862A1.075,1.075,0,0,1,67.969,19.521Z"
              fill="#FFF"/>
        <rect width="10.383" height="2.328" rx="1.164" transform="matrix(0.917, -0.4, 0.4, 0.917, 4.898, 50.883)"
              fill="#FFF"/>
    </g>
</svg>